<svg width="291" height="217" viewBox="0 0 291 217" fill="none" xmlns="http://www.w3.org/2000/svg">
<g clip-path="url(#clip0_178_145)">
<mask id="mask0_178_145" style="mask-type:luminance" maskUnits="userSpaceOnUse" x="0" y="0" width="291" height="217">
<path d="M291 0H0V217H291V0Z" fill="white"/>
</mask>
<g mask="url(#mask0_178_145)">
<path d="M291 190.547H0V190.692H291V190.547Z" fill="#EBEBEB"/>
<path d="M261.842 199.911H242.566V200.057H261.842V199.911Z" fill="#EBEBEB"/>
<path d="M241.984 194.51H230.815V194.656H241.984V194.51Z" fill="#EBEBEB"/>
<path d="M55.6683 195.488H30.5317V195.634H55.6683V195.488Z" fill="#EBEBEB"/>
<path d="M64.5381 195.488H60.854V195.634H64.5381V195.488Z" fill="#EBEBEB"/>
<path d="M131.037 197.944H76.5156V198.09H131.037V197.944Z" fill="#EBEBEB"/>
<path d="M137.934 164.59H25.5557C24.6753 164.588 23.8315 164.237 23.2096 163.614C22.5876 162.991 22.2383 162.147 22.2383 161.266V3.29412C22.2459 2.41881 22.5987 1.58186 23.2198 0.965083C23.8409 0.348303 24.6803 0.00149946 25.5557 0H137.934C138.815 0 139.661 0.350124 140.284 0.973349C140.907 1.59657 141.257 2.44185 141.257 3.32322V161.266C141.257 162.148 140.907 162.993 140.284 163.616C139.661 164.239 138.815 164.59 137.934 164.59ZM25.5557 0.1164C24.7139 0.117942 23.9071 0.453416 23.3125 1.04919C22.7178 1.64496 22.3838 2.45234 22.3838 3.29412V161.266C22.3838 162.108 22.7178 162.916 23.3125 163.511C23.9071 164.107 24.7139 164.443 25.5557 164.444H137.934C138.776 164.443 139.584 164.107 140.179 163.512C140.775 162.916 141.11 162.109 141.112 161.266V3.29412C141.11 2.45181 140.775 1.64444 140.179 1.04883C139.584 0.453227 138.776 0.117939 137.934 0.1164H25.5557Z" fill="#EBEBEB"/>
<path d="M263.826 164.59H151.442C150.561 164.588 149.717 164.237 149.094 163.615C148.471 162.992 148.12 162.147 148.119 161.266V3.29412C148.128 2.41828 148.482 1.58134 149.104 0.964719C149.726 0.348099 150.566 0.0014831 151.442 0H263.826C264.701 0.00302902 265.539 0.350509 266.158 0.967126C266.778 1.58374 267.13 2.41981 267.138 3.29412V161.266C267.138 162.146 266.789 162.989 266.169 163.612C265.548 164.235 264.706 164.587 263.826 164.59ZM151.442 0.1164C150.6 0.117939 149.792 0.453227 149.197 1.04883C148.601 1.64444 148.266 2.45181 148.264 3.29412V161.266C148.266 162.109 148.601 162.916 149.197 163.512C149.792 164.107 150.6 164.443 151.442 164.444H263.826C264.669 164.443 265.476 164.107 266.072 163.512C266.667 162.916 267.002 162.109 267.004 161.266V3.29412C267.002 2.45181 266.667 1.64444 266.072 1.04883C265.476 0.453227 264.669 0.117939 263.826 0.1164H151.442Z" fill="#EBEBEB"/>
<path d="M168.6 69.2932H248.788V16.7793H168.6V69.2932Z" fill="#E6E6E6"/>
<path d="M166.149 69.2932H247.641V16.7793H166.149V69.2932Z" fill="#F0F0F0"/>
<path d="M168.6 79.5944H248.788V69.2871H168.6V79.5944Z" fill="#E6E6E6"/>
<path d="M162.081 79.5944H243.573V69.2871H162.081V79.5944Z" fill="#F0F0F0"/>
<path d="M244.219 65.8708V20.207H169.577V65.8708H244.219Z" fill="#FAFAFA"/>
<path d="M227.387 65.8649L217.854 20.207H202.978L212.511 65.8649H227.387Z" fill="white"/>
<path d="M242.636 62.4601C242.668 62.4601 242.701 62.4536 242.731 62.441C242.761 62.4283 242.788 62.4098 242.811 62.3865C242.834 62.3631 242.851 62.3355 242.863 62.3052C242.875 62.2748 242.881 62.2424 242.88 62.2098V22.436C242.88 22.3711 242.855 22.309 242.809 22.2631C242.763 22.2173 242.701 22.1915 242.636 22.1915C242.604 22.1907 242.571 22.1965 242.541 22.2085C242.511 22.2205 242.484 22.2385 242.461 22.2613C242.438 22.2842 242.42 22.3115 242.408 22.3415C242.396 22.3715 242.391 22.4036 242.391 22.436V62.2098C242.391 62.2424 242.396 62.2748 242.408 62.3052C242.42 62.3355 242.438 62.3631 242.461 62.3865C242.484 62.4098 242.511 62.4283 242.541 62.441C242.571 62.4536 242.603 62.4601 242.636 62.4601Z" fill="#F0F0F0"/>
<path d="M209.316 65.8649L199.783 20.207H193.98L203.519 65.8649H209.316Z" fill="white"/>
<path d="M170.014 65.8708V20.207H169.577V65.8708H170.014Z" fill="#E6E6E6"/>
<path opacity="0.6" d="M165.346 25.3695H245.534L245.848 21.5342H165.66L165.346 25.3695Z" fill="#EBEBEB"/>
<path opacity="0.6" d="M165.346 31.6552H245.534L245.848 27.8198H165.66L165.346 31.6552Z" fill="#EBEBEB"/>
<path opacity="0.6" d="M165.346 37.9408H245.534L245.848 34.1113H165.66L165.346 37.9408Z" fill="#EBEBEB"/>
<path opacity="0.6" d="M165.346 44.2319H245.534L245.848 40.3965H165.66L165.346 44.2319Z" fill="#EBEBEB"/>
<path opacity="0.6" d="M165.346 50.5174H245.534L245.848 46.6821H165.66L165.346 50.5174Z" fill="#EBEBEB"/>
<path opacity="0.6" d="M165.346 56.8032H245.534L245.848 52.9678H165.66L165.346 56.8032Z" fill="#EBEBEB"/>
<path d="M237.275 152.356H220.461V155.673H237.275V152.356Z" fill="#E6E6E6"/>
<path d="M188.749 190.547H191.851V114.264H188.749V190.547Z" fill="#E6E6E6"/>
<path d="M177.993 155.673H220.456V152.356H177.993V155.673Z" fill="#F5F5F5"/>
<path d="M237.275 170.497H220.461V173.814H237.275V170.497Z" fill="#E6E6E6"/>
<path d="M177.993 173.808H220.456V170.491H177.993V173.808Z" fill="#F5F5F5"/>
<path d="M237.275 116.08H220.461V119.397H237.275V116.08Z" fill="#E6E6E6"/>
<path d="M177.993 119.391H220.456V116.074H177.993V119.391Z" fill="#F5F5F5"/>
<path d="M237.275 134.215H220.461V137.532H237.275V134.215Z" fill="#E6E6E6"/>
<path d="M177.993 137.532H220.456V134.215H177.993V137.532Z" fill="#F5F5F5"/>
<path d="M231.217 190.547H234.319V114.264H231.217V190.547Z" fill="#E6E6E6"/>
<path d="M217.354 190.547H220.456V114.264H217.354V190.547Z" fill="#F5F5F5"/>
<path d="M177.993 190.547H181.095V114.264H177.993V190.547Z" fill="#F5F5F5"/>
<path d="M38.051 190.541H69.8166V128.913H38.051V190.541Z" fill="#E6E6E6"/>
<path d="M46.531 190.547H38.0454V182.038H55.4239L46.531 190.547Z" fill="#FAFAFA"/>
<path d="M124.653 190.541H156.418V128.913H124.653V190.541Z" fill="#E6E6E6"/>
<path d="M38.0513 187.614H132.062V128.913H38.0513V187.614Z" fill="#FAFAFA"/>
<path d="M123.576 190.547H132.056V182.038H114.683L123.576 190.547Z" fill="#FAFAFA"/>
<path d="M44.6277 165.48H125.479V150.79H44.6277V165.48Z" fill="#F0F0F0"/>
<path d="M44.6277 183.307H125.479V168.617H44.6277V183.307Z" fill="#F0F0F0"/>
<path d="M110.114 152.362H59.9984C59.2915 152.362 58.6135 152.081 58.1136 151.581C57.6137 151.081 57.3328 150.403 57.3328 149.696V149.516H112.774V149.696C112.774 150.402 112.494 151.079 111.996 151.579C111.497 152.079 110.82 152.36 110.114 152.362Z" fill="#FAFAFA"/>
<path d="M44.6277 147.648H125.479V132.958H44.6277V147.648Z" fill="#F0F0F0"/>
<path d="M110.114 134.529H59.9984C59.2915 134.529 58.6135 134.248 58.1136 133.749C57.6137 133.249 57.3328 132.571 57.3328 131.864V131.683H112.774V131.864C112.774 132.57 112.494 133.247 111.996 133.747C111.497 134.246 110.82 134.528 110.114 134.529Z" fill="#FAFAFA"/>
<path d="M110.114 170.188H59.9984C59.2915 170.188 58.6135 169.908 58.1136 169.408C57.6137 168.908 57.3328 168.23 57.3328 167.523V167.343H112.774V167.523C112.774 168.229 112.494 168.906 111.996 169.406C111.497 169.905 110.82 170.187 110.114 170.188Z" fill="#FAFAFA"/>
<path d="M43.1089 69.2932H123.297V16.7793H43.1089V69.2932Z" fill="#E6E6E6"/>
<path d="M40.6643 69.2932H122.156V16.7793H40.6643V69.2932Z" fill="#F0F0F0"/>
<path d="M43.1089 79.5944H123.297V69.2871H43.1089V79.5944Z" fill="#E6E6E6"/>
<path d="M36.5845 79.5944H118.076V69.2871H36.5845V79.5944Z" fill="#F0F0F0"/>
<path d="M118.728 65.8708V20.207H44.0864V65.8708H118.728Z" fill="#FAFAFA"/>
<path d="M101.897 65.8649L92.3635 20.207H77.4875L87.0207 65.8649H101.897Z" fill="white"/>
<path d="M117.139 62.4601C117.172 62.4601 117.204 62.4536 117.234 62.441C117.264 62.4283 117.291 62.4098 117.314 62.3865C117.337 62.3631 117.355 62.3355 117.367 62.3052C117.379 62.2748 117.384 62.2424 117.384 62.2098V22.436C117.385 22.4036 117.379 22.3715 117.367 22.3415C117.355 22.3115 117.337 22.2842 117.314 22.2613C117.291 22.2385 117.264 22.2205 117.234 22.2085C117.204 22.1965 117.172 22.1907 117.139 22.1915C117.074 22.1915 117.012 22.2173 116.966 22.2631C116.921 22.309 116.895 22.3711 116.895 22.436V62.2098C116.894 62.2424 116.9 62.2748 116.912 62.3052C116.924 62.3355 116.942 62.3631 116.964 62.3865C116.987 62.4098 117.014 62.4283 117.044 62.441C117.074 62.4536 117.107 62.4601 117.139 62.4601Z" fill="#F0F0F0"/>
<path d="M83.8254 65.8649L74.2923 20.207H68.4897L78.0229 65.8649H83.8254Z" fill="white"/>
<path d="M44.5229 65.8708V20.207H44.0864V65.8708H44.5229Z" fill="#E6E6E6"/>
<path opacity="0.6" d="M39.8496 25.3695H120.038L120.352 21.5342H40.1639L39.8496 25.3695Z" fill="#EBEBEB"/>
<path opacity="0.6" d="M39.8496 27.5288H120.038L120.352 23.6992H40.1639L39.8496 27.5288Z" fill="#EBEBEB"/>
<path opacity="0.6" d="M39.8496 29.6938H120.038L120.352 25.8584H40.1639L39.8496 29.6938Z" fill="#EBEBEB"/>
<path opacity="0.6" d="M39.8496 31.853H120.038L120.352 28.0234H40.1639L39.8496 31.853Z" fill="#EBEBEB"/>
<path opacity="0.6" d="M39.8496 34.018H120.038L120.352 30.1826H40.1639L39.8496 34.018Z" fill="#EBEBEB"/>
<path opacity="0.6" d="M39.8496 36.1831H120.038L120.352 32.3477H40.1639L39.8496 36.1831Z" fill="#EBEBEB"/>
<path d="M55.8835 127.033H58.6538V96.1348H55.8835V127.033Z" fill="#F5F5F5"/>
<path d="M56.2329 127.01H57.0186V96.1113H56.2329V127.01Z" fill="#FAFAFA"/>
<path d="M57.3445 127.01H57.6529V96.1113H57.3445V127.01Z" fill="#FAFAFA"/>
<path d="M67.5295 128.919H47.0198C47.0198 128.233 47.2921 127.576 47.7767 127.092C48.2613 126.607 48.9186 126.335 49.6039 126.335H64.9396C65.6249 126.335 66.2822 126.607 66.7668 127.092C67.2514 127.576 67.5237 128.233 67.5237 128.919H67.5295Z" fill="#F0F0F0"/>
<path d="M52.2868 115.318C52.4978 115.316 52.6997 115.232 52.8489 115.082C52.9981 114.933 53.0826 114.731 53.0841 114.52V94.2842C53.0841 94.0727 53.0001 93.8699 52.8506 93.7203C52.7011 93.5708 52.4983 93.4868 52.2868 93.4868C52.1816 93.486 52.0773 93.5061 51.9799 93.5458C51.8825 93.5856 51.7939 93.6442 51.7192 93.7183C51.6446 93.7924 51.5853 93.8806 51.5449 93.9777C51.5045 94.0748 51.4836 94.179 51.4836 94.2842V114.543C51.4912 114.751 51.5791 114.948 51.7289 115.093C51.8787 115.237 52.0787 115.318 52.2868 115.318Z" fill="#F0F0F0"/>
<path d="M44.8547 103.48H69.677L66.8194 86.1362H47.7124L44.8547 103.48Z" fill="#E0E0E0"/>
<path d="M145.5 216.83C207.822 216.83 258.344 213.88 258.344 210.242C258.344 206.603 207.822 203.653 145.5 203.653C83.178 203.653 32.656 206.603 32.656 210.242C32.656 213.88 83.178 216.83 145.5 216.83Z" fill="#F5F5F5"/>
<path d="M60.5969 85.7627L60.0164 85.8045L60.7895 96.5379L61.37 96.496L60.5969 85.7627Z" fill="#0AAAB6"/>
<path d="M61.7643 102.037L61.1838 102.079L61.4749 106.119L62.0554 106.078L61.7643 102.037Z" fill="#0AAAB6"/>
<path d="M196.547 151.413H71.9059C70.5185 151.388 69.1894 150.851 68.1749 149.904C67.1604 148.957 66.5324 147.668 66.4118 146.286L60.2892 61.2382C60.2322 60.5823 60.3133 59.9217 60.5271 59.299C60.741 58.6764 61.0829 58.1054 61.5309 57.6229C61.9788 57.1404 62.5229 56.7571 63.128 56.4977C63.733 56.2382 64.3858 56.1084 65.0441 56.1166H189.685C191.072 56.1414 192.4 56.6783 193.414 57.6238C194.429 58.5694 195.057 59.8568 195.179 61.2382L201.302 146.286C201.359 146.942 201.278 147.603 201.064 148.226C200.85 148.849 200.508 149.42 200.06 149.903C199.613 150.386 199.069 150.77 198.464 151.03C197.858 151.29 197.206 151.421 196.547 151.413Z" fill="#802830"/>
<path d="M197.024 151.413H72.3832C70.9957 151.388 69.6667 150.851 68.6522 149.904C67.6377 148.957 67.0097 147.668 66.8891 146.286L60.7664 61.2382C60.7095 60.5823 60.7906 59.9217 61.0044 59.299C61.2183 58.6764 61.5602 58.1054 62.0082 57.6229C62.4561 57.1404 63.0001 56.7571 63.6052 56.4977C64.2103 56.2382 64.8631 56.1084 65.5214 56.1166H190.163C191.549 56.1414 192.877 56.6783 193.892 57.6238C194.906 58.5694 195.535 59.8568 195.657 61.2382L201.779 146.286C201.837 146.942 201.757 147.603 201.543 148.227C201.33 148.85 200.988 149.422 200.54 149.905C200.092 150.388 199.547 150.772 198.942 151.032C198.336 151.292 197.683 151.421 197.024 151.413Z" fill="#802830"/>
<path opacity="0.5" d="M197.024 151.413H72.3832C70.9957 151.388 69.6667 150.851 68.6522 149.904C67.6377 148.957 67.0097 147.668 66.8891 146.286L60.7664 61.2382C60.7095 60.5823 60.7906 59.9217 61.0044 59.299C61.2183 58.6764 61.5602 58.1054 62.0082 57.6229C62.4561 57.1404 63.0001 56.7571 63.6052 56.4977C64.2103 56.2382 64.8631 56.1084 65.5214 56.1166H190.163C191.549 56.1414 192.877 56.6783 193.892 57.6238C194.906 58.5694 195.535 59.8568 195.657 61.2382L201.779 146.286C201.837 146.942 201.757 147.603 201.543 148.227C201.33 148.85 200.988 149.422 200.54 149.905C200.092 150.388 199.547 150.772 198.942 151.032C198.336 151.292 197.683 151.421 197.024 151.413Z" fill="white"/>
<path d="M190.349 58.6777H65.7076H65.2885C62.105 58.9396 62.7568 63.7877 65.9695 63.7877H190.82C194.039 63.7877 193.992 58.9396 190.768 58.6777H190.349Z" fill="#802830"/>
<path d="M68.9549 61.2383C68.9672 61.3884 68.9478 61.5393 68.8981 61.6814C68.8484 61.8235 68.7694 61.9536 68.6663 62.0633C68.5632 62.173 68.4382 62.2598 68.2995 62.3182C68.1607 62.3766 68.0113 62.4053 67.8608 62.4023C67.5444 62.3979 67.241 62.2765 67.0088 62.0616C66.7767 61.8466 66.6324 61.5534 66.6037 61.2383C66.5915 61.0888 66.6107 60.9383 66.66 60.7967C66.7094 60.655 66.7878 60.5252 66.8903 60.4156C66.9928 60.306 67.117 60.219 67.2551 60.1602C67.3932 60.1015 67.542 60.0722 67.692 60.0743C68.0093 60.0773 68.3142 60.1981 68.5476 60.4132C68.7809 60.6282 68.9261 60.9223 68.9549 61.2383Z" fill="#FAFAFA"/>
<path d="M72.9535 61.2383C72.9657 61.3884 72.9463 61.5393 72.8966 61.6814C72.8469 61.8235 72.7679 61.9536 72.6648 62.0633C72.5617 62.173 72.4368 62.2598 72.298 62.3182C72.1593 62.3766 72.0098 62.4053 71.8593 62.4023C71.543 62.3979 71.2395 62.2765 71.0074 62.0616C70.7753 61.8466 70.6309 61.5534 70.6022 61.2383C70.59 61.0888 70.6092 60.9383 70.6586 60.7967C70.708 60.655 70.7864 60.5252 70.8889 60.4156C70.9913 60.306 71.1156 60.219 71.2536 60.1602C71.3917 60.1015 71.5405 60.0722 71.6905 60.0743C72.0079 60.0773 72.3128 60.1981 72.5461 60.4132C72.7795 60.6282 72.9246 60.9223 72.9535 61.2383Z" fill="#FAFAFA"/>
<path d="M76.946 61.2384C76.9582 61.388 76.9389 61.5384 76.8896 61.6801C76.8402 61.8218 76.7618 61.9516 76.6593 62.0612C76.5568 62.1708 76.4326 62.2578 76.2945 62.3165C76.1565 62.3753 76.0077 62.4046 75.8576 62.4024C75.5409 62.3993 75.2367 62.2783 75.0043 62.0632C74.7719 61.848 74.628 61.554 74.6005 61.2384C74.5874 61.0887 74.606 60.9379 74.655 60.7958C74.704 60.6537 74.7824 60.5235 74.8851 60.4137C74.9878 60.3039 75.1124 60.217 75.2509 60.1585C75.3893 60.1001 75.5386 60.0714 75.6889 60.0744C76.0052 60.0789 76.3087 60.2003 76.5408 60.4152C76.7729 60.6301 76.9173 60.9234 76.946 61.2384Z" fill="#FAFAFA"/>
<path d="M193.255 142.927H74.0321C73.5285 142.919 73.0459 142.724 72.6781 142.38C72.3103 142.035 72.0834 141.567 72.0417 141.065L67.0074 71.126C66.985 70.886 67.0138 70.644 67.0921 70.416C67.1704 70.188 67.2963 69.9793 67.4615 69.8037C67.6266 69.6282 67.8272 69.4897 68.0499 69.3976C68.2727 69.3055 68.5124 69.2618 68.7534 69.2694H188.005C188.508 69.2763 188.991 69.4703 189.359 69.8135C189.727 70.1567 189.954 70.6246 189.996 71.126L195.036 141.065C195.058 141.308 195.027 141.553 194.946 141.783C194.866 142.014 194.737 142.224 194.568 142.401C194.399 142.577 194.195 142.715 193.968 142.806C193.742 142.897 193.499 142.938 193.255 142.927Z" fill="white"/>
<g opacity="0.2">
<path d="M207.983 193.975H203.106L202.908 199.795H207.785L207.983 193.975Z" fill="#202020"/>
</g>
<path opacity="0.3" d="M195.587 110.871C197.915 121.085 196.058 137.172 194.784 144.255C193.433 133.499 192.752 119.56 192.415 109.335C193.62 107.391 194.76 107.263 195.587 110.871Z" fill="#202020"/>
<path d="M137.51 82.9419C134.041 82.9419 130.936 84.6284 129 87.2159C127.064 84.6284 123.959 82.9419 120.49 82.9419C114.606 82.9419 109.833 87.7334 109.833 93.6559C109.833 95.9368 110.197 98.0451 110.83 100C113.858 109.583 123.192 115.314 127.812 116.886C128.463 117.116 129.537 117.116 130.188 116.886C134.807 115.314 144.142 109.583 147.17 100C147.802 98.0451 148.167 95.9368 148.167 93.6559C148.167 87.7334 143.394 82.9419 137.51 82.9419Z" fill="#802830"/>
<path d="M99.5428 130.863L99.6657 131.921L95.1055 131.98L94.292 124.981L98.8522 124.922L98.9751 125.979L95.6746 126.022L95.8944 127.914L99.0143 127.873L99.1299 128.867L96.01 128.908L96.2423 130.906L99.5428 130.863ZM100.637 131.908L100.04 126.767L101.206 126.751L101.31 127.644L101.335 127.643C101.413 127.338 101.572 127.095 101.812 126.913C102.052 126.732 102.346 126.639 102.694 126.635C103.059 126.63 103.377 126.716 103.648 126.894C103.923 127.069 104.127 127.32 104.259 127.649H104.289C104.376 127.33 104.551 127.077 104.816 126.889C105.084 126.697 105.405 126.599 105.78 126.594C106.291 126.588 106.718 126.739 107.06 127.049C107.406 127.358 107.608 127.77 107.668 128.284L108.078 131.81L106.862 131.826L106.487 128.596C106.45 128.279 106.34 128.036 106.158 127.867C105.978 127.698 105.74 127.615 105.444 127.619C105.151 127.623 104.925 127.723 104.765 127.919C104.605 128.116 104.543 128.367 104.579 128.675L104.948 131.851L103.767 131.867L103.384 128.574C103.351 128.289 103.242 128.065 103.057 127.903C102.874 127.737 102.642 127.656 102.358 127.659C102.065 127.663 101.838 127.768 101.676 127.974C101.514 128.177 101.451 128.434 101.487 128.744L101.853 131.892L100.637 131.908ZM111.288 126.532C111.946 126.523 112.496 126.754 112.938 127.224C113.381 127.695 113.65 128.34 113.745 129.162C113.841 129.98 113.724 130.629 113.395 131.109C113.066 131.59 112.576 131.834 111.925 131.843C111.554 131.847 111.217 131.769 110.915 131.608C110.612 131.444 110.372 131.217 110.195 130.928H110.171L110.467 133.474L109.251 133.49L108.457 126.656L109.643 126.641L109.746 127.529L109.771 127.528C109.885 127.222 110.074 126.982 110.337 126.807C110.6 126.628 110.917 126.537 111.288 126.532ZM111.419 130.858C111.813 130.853 112.107 130.7 112.3 130.4C112.493 130.096 112.56 129.689 112.5 129.178C112.441 128.67 112.279 128.268 112.013 127.97C111.75 127.672 111.423 127.526 111.033 127.531C110.655 127.536 110.369 127.692 110.173 127.999C109.977 128.306 109.907 128.71 109.962 129.211C110.023 129.716 110.188 130.118 110.454 130.419C110.72 130.717 111.042 130.863 111.419 130.858ZM114.425 125.374L115.641 125.358L115.78 126.561L116.757 126.548L116.865 127.479L115.889 127.492L116.199 130.164C116.224 130.374 116.292 130.529 116.405 130.628C116.517 130.727 116.681 130.775 116.896 130.772C117.039 130.77 117.154 130.761 117.24 130.743L117.347 131.665C117.204 131.699 116.996 131.718 116.723 131.722C116.163 131.729 115.75 131.627 115.484 131.417C115.222 131.207 115.062 130.851 115.003 130.35L114.673 127.508L113.931 127.517L113.823 126.586L114.565 126.577L114.425 125.374ZM118.983 133.582C118.719 133.585 118.559 133.581 118.502 133.568L118.391 132.613C118.448 132.625 118.566 132.63 118.745 132.628C118.995 132.624 119.185 132.57 119.313 132.465C119.441 132.36 119.525 132.188 119.566 131.951C119.565 131.948 119.571 131.901 119.584 131.81C119.599 131.72 119.605 131.671 119.601 131.664L117.162 126.543L118.49 126.525L120.189 130.622H120.208L120.951 126.493L122.23 126.476L120.981 131.846C120.834 132.485 120.612 132.932 120.316 133.185C120.019 133.442 119.575 133.574 118.983 133.582ZM126.792 131.565L125.532 131.582L124.719 124.583L129.211 124.524L129.334 125.582L126.102 125.624L126.342 127.69L129.296 127.651L129.414 128.67L126.46 128.709L126.792 131.565ZM132.35 130.662C132.698 130.657 132.979 130.552 133.193 130.345C133.41 130.135 133.5 129.876 133.465 129.569L133.419 129.176L132.231 129.265C131.94 129.288 131.721 129.364 131.573 129.492C131.428 129.617 131.367 129.781 131.391 129.985C131.415 130.195 131.514 130.362 131.689 130.486C131.866 130.607 132.086 130.666 132.35 130.662ZM132.089 131.579C131.585 131.585 131.153 131.447 130.794 131.163C130.439 130.88 130.234 130.508 130.181 130.049C130.128 129.593 130.255 129.231 130.563 128.961C130.874 128.691 131.343 128.533 131.969 128.486L133.328 128.39L133.285 128.022C133.254 127.754 133.143 127.546 132.953 127.4C132.767 127.253 132.522 127.182 132.219 127.186C131.936 127.189 131.712 127.256 131.548 127.384C131.384 127.512 131.295 127.685 131.281 127.902L130.153 127.917C130.122 127.429 130.286 127.03 130.645 126.721C131.006 126.408 131.51 126.248 132.158 126.239C132.799 126.231 133.33 126.379 133.75 126.685C134.174 126.99 134.415 127.402 134.476 127.919L134.887 131.459L133.715 131.475L133.62 130.655H133.596C133.481 130.932 133.285 131.155 133.008 131.324C132.731 131.489 132.425 131.574 132.089 131.579ZM139.807 126.246L138.583 131.411L137.245 131.429L134.812 126.311L136.111 126.294L137.779 130.3L137.804 130.299L138.537 126.263L139.807 126.246ZM144.864 130.717C144.467 131.198 143.886 131.444 143.121 131.454C142.356 131.464 141.72 131.234 141.212 130.765C140.704 130.292 140.402 129.642 140.306 128.814C140.21 127.99 140.362 127.335 140.762 126.85C141.162 126.363 141.741 126.114 142.499 126.104C143.261 126.094 143.896 126.327 144.404 126.803C144.916 127.275 145.219 127.924 145.315 128.748C145.411 129.576 145.261 130.232 144.864 130.717ZM142.03 130.059C142.293 130.357 142.619 130.503 143.01 130.498C143.4 130.493 143.692 130.339 143.885 130.035C144.078 129.731 144.143 129.308 144.08 128.765C144.017 128.225 143.854 127.806 143.591 127.508C143.328 127.207 143.001 127.059 142.611 127.064C142.223 127.069 141.932 127.225 141.736 127.532C141.543 127.836 141.478 128.258 141.541 128.798C141.604 129.341 141.767 129.762 142.03 130.059ZM150.387 126.108L150.984 131.249L149.813 131.264L149.709 130.372H149.685C149.474 131.032 148.985 131.367 148.217 131.377C147.654 131.385 147.187 131.221 146.815 130.886C146.447 130.547 146.228 130.082 146.159 129.49L145.773 126.168L146.989 126.152L147.347 129.232C147.39 129.601 147.51 129.881 147.708 130.072C147.91 130.264 148.182 130.358 148.523 130.353C148.872 130.349 149.135 130.232 149.314 130.003C149.493 129.774 149.56 129.472 149.517 129.097L149.171 126.123L150.387 126.108ZM151.98 131.236L151.383 126.095L152.55 126.079L152.654 126.977L152.678 126.976C152.73 126.661 152.853 126.417 153.048 126.243C153.246 126.069 153.498 125.979 153.804 125.975C153.912 125.974 154.04 125.989 154.191 126.019L154.317 127.11C154.192 127.067 154.025 127.046 153.816 127.049C153.471 127.053 153.213 127.16 153.042 127.37C152.871 127.579 152.806 127.865 152.848 128.227L153.196 131.22L151.98 131.236ZM155.447 131.19L154.849 126.049L156.065 126.033L156.663 131.174L155.447 131.19ZM155.833 125.172C155.717 125.299 155.565 125.365 155.376 125.367C155.188 125.37 155.021 125.309 154.876 125.184C154.731 125.057 154.648 124.902 154.627 124.721C154.605 124.537 154.652 124.381 154.768 124.253C154.883 124.122 155.035 124.055 155.224 124.053C155.412 124.05 155.579 124.113 155.725 124.24C155.873 124.365 155.958 124.519 155.979 124.703C156 124.884 155.951 125.041 155.833 125.172ZM157.283 124.813L158.498 124.797L158.638 126L159.615 125.987L159.723 126.918L158.746 126.931L159.057 129.603C159.081 129.813 159.15 129.968 159.262 130.067C159.375 130.166 159.539 130.214 159.753 130.211C159.897 130.209 160.011 130.2 160.097 130.182L160.204 131.104C160.062 131.138 159.854 131.157 159.58 131.161C159.02 131.168 158.608 131.066 158.342 130.856C158.08 130.646 157.919 130.29 157.861 129.789L157.531 126.947L156.788 126.956L156.68 126.025L157.422 126.015L157.283 124.813ZM162.675 126.777C162.336 126.782 162.066 126.902 161.866 127.138C161.668 127.37 161.577 127.668 161.593 128.03L164.01 127.999C163.954 127.633 163.804 127.337 163.559 127.111C163.314 126.884 163.02 126.773 162.675 126.777ZM164.193 129.536L165.331 129.521C165.309 130.01 165.107 130.41 164.722 130.719C164.337 131.025 163.84 131.182 163.232 131.19C162.457 131.201 161.821 130.973 161.323 130.506C160.825 130.037 160.529 129.391 160.433 128.57C160.338 127.755 160.482 127.099 160.865 126.602C161.25 126.105 161.816 125.851 162.561 125.841C163.293 125.832 163.902 126.059 164.386 126.522C164.869 126.982 165.157 127.603 165.248 128.386L165.293 128.778L161.676 128.826L161.684 128.899C161.732 129.312 161.888 129.644 162.152 129.893C162.419 130.142 162.751 130.264 163.148 130.259C163.428 130.255 163.661 130.189 163.848 130.06C164.038 129.928 164.153 129.753 164.193 129.536ZM165.825 127.382C165.771 126.91 165.918 126.526 166.269 126.23C166.619 125.934 167.108 125.782 167.736 125.774C168.342 125.766 168.85 125.908 169.263 126.201C169.678 126.49 169.921 126.872 169.992 127.347L168.86 127.362C168.814 127.139 168.7 126.966 168.516 126.842C168.332 126.718 168.098 126.658 167.815 126.661C167.548 126.665 167.34 126.726 167.191 126.845C167.041 126.96 166.977 127.111 166.999 127.299C167.032 127.583 167.303 127.782 167.812 127.895L168.758 128.087C169.29 128.2 169.679 128.363 169.925 128.577C170.172 128.791 170.317 129.088 170.361 129.47C170.418 129.955 170.258 130.35 169.883 130.656C169.508 130.959 168.993 131.115 168.339 131.124C167.694 131.132 167.158 130.993 166.73 130.707C166.306 130.418 166.043 130.028 165.944 129.537L167.14 129.522C167.203 129.757 167.332 129.937 167.526 130.061C167.722 130.184 167.974 130.244 168.28 130.24C168.576 130.236 168.802 130.178 168.959 130.066C169.118 129.951 169.187 129.798 169.165 129.607C169.147 129.458 169.08 129.341 168.962 129.255C168.848 129.166 168.661 129.091 168.403 129.029L167.435 128.823C166.449 128.613 165.913 128.132 165.825 127.382Z" fill="#802830"/>
<path d="M125.832 98.3806C125.841 98.5387 125.817 98.697 125.762 98.8457C125.708 98.9944 125.623 99.1304 125.514 99.2454C125.406 99.3603 125.274 99.4518 125.129 99.5143C124.983 99.5767 124.826 99.6088 124.668 99.6086C124.336 99.6027 124.017 99.4739 123.775 99.2471C123.532 99.0203 123.381 98.7116 123.353 98.3806C123.338 98.2208 123.357 98.0596 123.409 97.9078C123.461 97.756 123.545 97.6171 123.655 97.5003C123.766 97.3836 123.899 97.2916 124.048 97.2306C124.196 97.1697 124.356 97.1411 124.517 97.1467C124.849 97.1541 125.168 97.2841 125.41 97.5119C125.653 97.7396 125.803 98.049 125.832 98.3806Z" fill="white"/>
<path d="M133.805 98.3808C133.819 98.5402 133.799 98.7007 133.747 98.8518C133.694 99.0029 133.61 99.1411 133.5 99.2572C133.39 99.3733 133.256 99.4647 133.108 99.5253C132.96 99.5859 132.801 99.6144 132.641 99.6088C132.308 99.603 131.989 99.4744 131.745 99.2478C131.502 99.0211 131.35 98.7124 131.32 98.3808C131.31 98.2222 131.333 98.0633 131.388 97.9139C131.442 97.7645 131.526 97.6278 131.635 97.5122C131.744 97.3966 131.876 97.3046 132.022 97.2418C132.168 97.1789 132.325 97.1467 132.484 97.147C132.818 97.1516 133.139 97.2806 133.383 97.5087C133.627 97.7368 133.778 98.0477 133.805 98.3808Z" fill="white"/>
<path d="M136.063 106.378C135.993 106.376 135.925 106.349 135.873 106.3C135.822 106.252 135.79 106.186 135.784 106.116C135.639 104.131 132.531 102.519 128.858 102.519C126.42 102.519 124.231 103.246 123.149 104.41C122.927 104.625 122.752 104.884 122.638 105.171C122.524 105.458 122.472 105.766 122.485 106.075C122.488 106.113 122.483 106.151 122.471 106.188C122.459 106.224 122.44 106.258 122.415 106.287C122.364 106.345 122.292 106.381 122.215 106.386C122.138 106.392 122.061 106.366 122.003 106.315C121.945 106.265 121.909 106.193 121.903 106.116C121.886 105.73 121.95 105.345 122.09 104.985C122.23 104.625 122.444 104.298 122.718 104.026C123.882 102.752 126.251 101.954 128.841 101.954C132.874 101.954 136.162 103.764 136.325 106.075C136.328 106.112 136.323 106.148 136.311 106.183C136.299 106.218 136.28 106.25 136.256 106.278C136.232 106.305 136.202 106.328 136.169 106.344C136.136 106.36 136.1 106.37 136.063 106.372V106.378Z" fill="white"/>
<path d="M121.275 95.8898C121.204 95.8884 121.136 95.8616 121.083 95.8142C121.03 95.7608 121 95.6886 121 95.6134C121 95.5382 121.03 95.466 121.083 95.4126L122.322 94.0798C122.375 94.0286 122.446 94 122.52 94C122.594 94 122.665 94.0286 122.718 94.0798C122.744 94.1058 122.765 94.1366 122.779 94.1706C122.793 94.2045 122.8 94.2409 122.8 94.2777C122.8 94.3145 122.793 94.3509 122.779 94.3848C122.765 94.4188 122.744 94.4496 122.718 94.4756L121.478 95.8084C121.452 95.835 121.42 95.8559 121.385 95.8699C121.35 95.8839 121.312 95.8907 121.275 95.8898Z" fill="white"/>
<path d="M135.481 95.8898C135.411 95.8865 135.343 95.8599 135.289 95.8142L133.863 94.4814C133.837 94.4554 133.815 94.4242 133.8 94.3897C133.786 94.3552 133.778 94.3181 133.778 94.2806C133.778 94.2432 133.786 94.2061 133.8 94.1716C133.815 94.1371 133.837 94.1059 133.863 94.0798C133.917 94.0286 133.988 94 134.061 94C134.135 94 134.206 94.0286 134.259 94.0798L135.685 95.4126C135.711 95.4386 135.732 95.4694 135.746 95.5034C135.76 95.5373 135.767 95.5737 135.767 95.6105C135.767 95.6473 135.76 95.6837 135.746 95.7176C135.732 95.7516 135.711 95.7824 135.685 95.8084C135.63 95.8601 135.557 95.8891 135.481 95.8898Z" fill="white"/>
</g>
</g>
<defs>
<clipPath id="clip0_178_145">
<rect width="291" height="217" fill="white"/>
</clipPath>
</defs>
</svg>
